<?xml version="1.0" encoding="UTF-8" standalone="no"?>
<!DOCTYPE svg PUBLIC "-//W3C//DTD SVG 1.1//EN" "http://www.w3.org/Graphics/SVG/1.1/DTD/svg11.dtd">
<svg xmlns="http://www.w3.org/2000/svg" version="1.1" viewBox="0.00 0.00 150.00 150.00">

<path fill="#0a192f" d="
  M 75.26 16.06
  L 125.38 45.31
  A 0.51 0.51 0.0 0 1 125.63 45.75
  L 125.62 104.24
  A 0.51 0.51 0.0 0 1 125.37 104.68
  L 75.22 133.93
  A 0.51 0.51 0.0 0 1 74.70 133.93
  L 24.63 104.70
  A 0.51 0.51 0.0 0 1 24.38 104.26
  L 24.39 45.73
  A 0.51 0.51 0.0 0 1 24.64 45.29
  L 74.74 16.06
  A 0.51 0.51 0.0 0 1 75.26 16.06
  Z
  M 55.39 62.02
  A 0.31 0.31 0.0 0 1 55.70 62.33
  L 55.65 94.13
  A 0.31 0.31 0.0 0 0 55.97 94.44
  L 62.32 94.30
  A 0.31 0.31 0.0 0 0 62.62 93.99
  L 62.64 62.33
  A 0.31 0.31 0.0 0 1 62.95 62.02
  L 72.68 61.97
  A 0.31 0.31 0.0 0 0 72.99 61.66
  L 72.97 56.31
  A 0.31 0.31 0.0 0 0 72.66 56.00
  L 45.45 56.00
  A 0.31 0.31 0.0 0 0 45.14 56.31
  L 45.18 61.67
  A 0.31 0.31 0.0 0 0 45.49 61.98
  L 55.39 62.02
  Z
  M 79.07 56.40
  L 78.93 93.78
  A 0.49 0.49 0.0 0 0 79.42 94.27
  L 91.22 94.31
  A 12.75 12.55 -89.8 0 0 103.82 81.60
  L 103.86 68.74
  A 12.75 12.55 -89.8 0 0 91.36 55.95
  L 79.56 55.91
  A 0.49 0.49 0.0 0 0 79.07 56.40
  Z"
/>
<path fill="#64ffda" d="
  M 55.39 62.02
  L 45.49 61.98
  A 0.31 0.31 0.0 0 1 45.18 61.67
  L 45.14 56.31
  A 0.31 0.31 0.0 0 1 45.45 56.00
  L 72.66 56.00
  A 0.31 0.31 0.0 0 1 72.97 56.31
  L 72.99 61.66
  A 0.31 0.31 0.0 0 1 72.68 61.97
  L 62.95 62.02
  A 0.31 0.31 0.0 0 0 62.64 62.33
  L 62.62 93.99
  A 0.31 0.31 0.0 0 1 62.32 94.30
  L 55.97 94.44
  A 0.31 0.31 0.0 0 1 55.65 94.13
  L 55.70 62.33
  A 0.31 0.31 0.0 0 0 55.39 62.02
  Z"
/>
<path fill="#64ffda" d="
  M 79.07 56.40
  A 0.49 0.49 0.0 0 1 79.56 55.91
  L 91.36 55.95
  A 12.75 12.55 -89.8 0 1 103.86 68.74
  L 103.82 81.60
  A 12.75 12.55 -89.8 0 1 91.22 94.31
  L 79.42 94.27
  A 0.49 0.49 0.0 0 1 78.93 93.78
  L 79.07 56.40
  Z
  M 85.36 62.49
  L 85.40 87.57
  A 0.48 0.48 0.0 0 0 85.88 88.05
  L 90.94 88.04
  A 6.45 6.12 89.9 0 0 97.05 81.58
  L 97.03 68.44
  A 6.45 6.12 89.9 0 0 90.90 62.00
  L 85.84 62.01
  A 0.48 0.48 0.0 0 0 85.36 62.49
  Z"
/>
<path fill="#0a192f" d="
  M 85.36 62.49
  A 0.48 0.48 0.0 0 1 85.84 62.01
  L 90.90 62.00
  A 6.45 6.12 89.9 0 1 97.03 68.44
  L 97.05 81.58
  A 6.45 6.12 89.9 0 1 90.94 88.04
  L 85.88 88.05
  A 0.48 0.48 0.0 0 1 85.40 87.57
  L 85.36 62.49
  Z"
/>
</svg>
